PathFileType	4	(X/Y/Z)	C:/Users/beibeiliu/ov580/test_trc/User2\sequence.28_training_dense_left.trc
DataRate	CameraRate	NumFrames	NumMarkers	Units	OrigDataRate	OrigDataStartFrame	OrigNumFrames
120	120	9	19	mm	120	29	85
Frame#	Time	ThumbCMC			ThumbMCP			ThumbIP			ThumbTip			IndexMCP			IndexPIP			IndexTip			MiddleMCP			MiddlePIP			MiddleTip			RingMCP			RingPIP			RingTip			PinkyMCP			PinkyPIP			PinkyTip			BackHand1			BackHand2			BackHand3	
		X0	Y0	Z0	X1	Y1	Z1	X2	Y2	Z2	X3	Y3	Z3	X4	Y4	Z4	X5	Y5	Z5	X6	Y6	Z6	X7	Y7	Z7	X8	Y8	Z8	X9	Y9	Z9	X10	Y10	Z10	X11	Y11	Z11	X12	Y12	Z12	X13	Y13	Z13	X14	Y14	Z14	X15	Y15	Z15	X16	Y16	Z16	X17	Y17	Z17	X18	Y18	Z18	
28	0.233333	-282.899	59.9276	-24.397	-268.077	65.5184	-57.1127	-264.942	71.0348	-93.4402	-259.69	74.8854	-116.347	-332.46	38.932	-83.2538	-330.849	44.3413	-109.398	-326.989	48.7913	-140.995	-327.402	22.145	-89.5922	-327.582	30.3134	-124.66	-323.617	34.9566	-151.169	-313.436	5.29825	-96.8776	-316.37	13.9518	-123.382	-316.779	22.2203	-146.975	-294.259	-8.33382	-86.7076	-297.342	-1.49098	-114.502	-304.523	4.44562	-136.616	-296.769	-10.3693	-36.7827	-280.387	-8.53611	-1.72103	-306.707	19.5148	-10.6013	
29	0.241667	-260.122	65.9682	-20.075	-250.099	68.3835	-57.8924	-242.748	79.1065	-91.6576	-237.735	80.0651	-115.872	-318.291	71.9995	-76.8558	-316.164	81.4185	-104.138	-313.709	88.1041	-133.208	-323.494	53.5177	-89.3355	-320.333	64.043	-119.255	-317.581	73.3438	-150.559	-317.856	35.8004	-92.84	-317.162	44.4307	-119.411	-315.768	51.6219	-145.074	-305.513	16.3749	-85.6467	-308.274	25.5072	-113.237	-311.091	36.5408	-134.284	-303.92	14.613	-31.1489	-289.484	5.66899	-4.9107	-300.038	42.4028	-7.68948	
30	0.25	-237.469	55.9401	-22.8516	-223.966	59.0772	-60.181	-221.733	59.3622	-91.5903	-219.015	61.9883	-118.778	-282.812	99.8868	-74.4558	-282.527	101.051	-97.9595	-281.552	105.939	-130.305	-299.88	81.2428	-80.4551	-296.94	89.9412	-113.844	-293.303	94.6248	-142.571	-307.391	64.9278	-88.1563	-305.141	70.0831	-115.894	-296.962	81.398	-140.395	-306.779	40.7122	-83.4249	-304.708	48.0094	-106.845	-304.091	62.2842	-132.044	-304.997	35.7097	-29.2426	-291.369	18.5293	-1.07684	-280.177	56.3649	-5.6843	
31	0.258333	-211.554	37.6379	-22.0848	-198.89	33.4836	-60.75	-200.029	33.8633	-92.1858	-193.943	32.9504	-118.343	-243.768	93.3735	-76.9255	-239.389	97.658	-101.696	-238.326	98.4613	-131.866	-262.275	87.1964	-84.5767	-258.228	89.9442	-115.96	-254.048	92.6852	-146.956	-280.922	69.0522	-85.2564	-276.004	73.796	-110.926	-268.187	77.4353	-141.322	-290.822	47.4155	-78.5261	-286.943	54.1637	-107.27	-281.448	61.1581	-126.795	-282.749	47.9318	-24.8641	-274.564	28.4409	3.37759	-246.694	58.7381	-6.7655	
32	0.266667	-190.768	22.0845	-22.1475	-179.891	8.82863	-54.9726	-176.423	1.61589	-89.7971	-176.69	-4.11511	-112.641	-211.187	69.0997	-82.8596	-210.459	64.8452	-114.042	-210.377	57.3883	-142.095	-235.196	62.0375	-91.0074	-230.538	58.1047	-123.67	-224.016	49.4968	-153.97	-252.194	51.2923	-91.0532	-250.479	46.8726	-117.381	-242.131	40.4703	-145.318	-269.037	31.7757	-82.272	-259.724	31.7516	-107.952	-255.004	32.4526	-133.345	-260.722	43.0848	-28.7347	-254.6	29.0185	4.11469	-227.501	47.5624	-11.3972	
33	0.275	-171.64	16.7067	-17.8277	-159.341	-4.44433	-47.656	-154.784	-20.2462	-81.2314	-150.951	-31.9844	-96.4933	-197.323	37.1801	-92.4893	-192.654	25.2329	-119.137	-187.49	9.58703	-143.237	-212.956	27.7027	-100.133	-207.209	13.476	-125.721	-199.693	-1.33268	-149.836	-230.869	15.873	-97.7483	-226.621	3.77386	-118.906	-216.51	-10.0236	-144.82	-248.063	0.89325	-86.1603	-237.294	-7.61253	-106.686	-235.327	-12.2503	-128.59	-242.224	29.5896	-34.2549	-241.463	26.3168	-2.31907	-213.596	42.6978	-18.5075	
34	0.283333	-170.676	23.6429	-18.4216	-148.509	-0.288974	-39.9484	-138.032	-19.5218	-65.6967	-130.361	-34.6405	-83.9441	-190.101	24.2953	-95.9808	-179.559	3.51392	-120.587	-172.282	-12.1937	-135.74	-203.798	8.11357	-103.427	-191.756	-12.2966	-124.747	-177.286	-31.73	-145.217	-221.548	-8.44696	-97.1942	-206.539	-22.206	-117.543	-193.329	-39.7697	-136.797	-234.132	-22.4897	-79.0335	-218.481	-34.3068	-102.434	-208.646	-41.6431	-121.825	-238.803	16.5279	-39.4301	-240.443	19.3824	-3.4924	-216.049	38.2946	-26.062	
35	0.291667	-175.924	36.3637	-19.6865	-150.354	14.4474	-41.9775	-133.334	-3.2484	-61.4892	-118.647	-18.3645	-76.7425	-191.372	22.7096	-100.252	-171.203	5.86523	-119.588	-159.131	-11.0393	-130.366	-202.652	-1.74028	-103.749	-180.198	-15.6296	-121.182	-160.327	-31.8151	-137.441	-211.977	-20.2032	-95.6261	-192.19	-32.6623	-113.401	-173.266	-44.0737	-126.609	-218.103	-35.0242	-81.5392	-199.891	-44.7629	-97.3208	-189.507	-53.9427	-111.546	-241.785	4.87304	-44.2384	-245.748	12.1025	-8.96616	-223.564	35.9784	-29.1881	
36	0.3	-186.968	48.2349	-23.2357	-156.643	30.7716	-42.3103	-133.52	17.4794	-60.3309	-110.705	10.1887	-74.183	-195.607	21.7575	-100.208	-175.661	11.8947	-115.257	-153.533	-2.35515	-126.917	-200.35	1.6266	-102.298	-175.096	-6.95763	-118.577	-150.21	-23.2167	-131.145	-203.219	-19.9906	-92.8415	-181.328	-27.3863	-107.163	-152.711	-34.6155	-123.939	-202.756	-34.2326	-78.9173	-182.884	-39.6398	-92.4836	-167.628	-49.7155	-109.169	-239.431	-4.06955	-41.6796	-246.516	5.94661	-12.048	-232.494	33.4661	-32.8362	
